<?xml version="1.0" encoding="utf-8"?>
<!-- Generator: Adobe Illustrator 24.1.2, SVG Export Plug-In . SVG Version: 6.00 Build 0)  -->
<svg version="1.1" id="Layer_1" xmlns="http://www.w3.org/2000/svg" xmlns:xlink="http://www.w3.org/1999/xlink" x="0px" y="0px"
	 viewBox="0 0 512 512" style="enable-background:new 0 0 512 512;" xml:space="preserve">
<style type="text/css">
	.st0{fill:#E53E2B;}
	.st1{fill-rule:evenodd;clip-rule:evenodd;fill:#FFFFFF;}
</style>
<rect class="st0" width="512" height="512"/>
<path class="st1" d="M324.5,209.1c-1.3,14-2.7,27.9-3.8,41.9c-0.3,3.5-1.8,4.1-4.8,4c-10.9-0.1-21.8,0.1-32.8-0.1
	c-3.5-0.1-4.5,1.2-4.5,4.6c0.1,23.4,0,46.8,0,70.2s0,46.8,0,70.2c0,4.7-0.1,4.8-4.9,4.8h-50.8c-4.9,0-5-0.1-5-5.1V261.7
	c0-6,0-6-5.8-6c-7.1,0-14.2-0.1-21.3,0c-3,0.1-4-1-4-4c0.1-14.5,0.1-29,0-43.6c0-3,1.2-3.9,4.1-3.9c7.7,0.1,15.4-0.1,23.1,0.1
	c3,0.1,4-1,4-3.9c-0.1-12.4-0.2-24.8,0-37.1c0.2-13.9,2.8-27.2,12.4-38.2c7.9-9,18.3-13.4,29.6-15.8c7.5-1.6,15.2-2.3,22.9-2.2
	c12.5,0.1,24.9,0.1,37.4,0c3.3-0.1,4.4,1.1,4.4,4.4c-0.1,14.6-0.1,29.3,0,43.9c0,3.5-1.3,4.6-4.6,4.5c-9.4-0.2-18.7-0.1-28.1,0
	c-9.6,0.1-13.3,3.6-13.4,13.3c-0.1,9,0.1,18-0.1,27c0,3.1,0.9,4.2,4.1,4.2c12.5-0.1,25-0.1,37.5-0.1
	C324.7,204.4,324.9,204.8,324.5,209.1z"/>
</svg>
