<?xml version="1.0" encoding="utf-8"?>
<!-- Generator: Adobe Illustrator 24.1.2, SVG Export Plug-In . SVG Version: 6.00 Build 0)  -->
<svg version="1.1" id="Layer_1" xmlns="http://www.w3.org/2000/svg" xmlns:xlink="http://www.w3.org/1999/xlink" x="0px" y="0px"
	 viewBox="0 0 512 512" style="enable-background:new 0 0 512 512;" xml:space="preserve">
<style type="text/css">
	.st0{fill:#E53E2B;}
	.st1{fill:#FFFFFF;}
	.st2{fill-rule:evenodd;clip-rule:evenodd;fill:#FFFFFF;}
</style>
<rect class="st0" width="512" height="512"/>
<path class="st1" d="M405.5,182.5c-1.3-41.1-32-65.5-58.8-72.4c-3.1-0.8-14.6-4.4-26.1-4.4h-0.2H194.7h-0.2c-8.7,0-18.2,2.5-27,4.9
	c-33.4,9.3-59.8,39.7-59.8,81.9c0,0.1,0,0.2,0,0.2v125.7c0,0.1,0,0.2,0,0.3c0,58.8,43.4,84.2,77.5,85c48.3,1.1,96.8,1.4,145.1-0.1
	c41-1.2,74-34.2,75.3-75.2C407,279.8,407,231.1,405.5,182.5z M377.5,329.2c-3.7,29.9-23.7,47-54,47.6c-43.9,0.8-87.8,0.8-131.7,0
	c-33.1-0.6-54.9-22.5-55.4-55.5c-0.7-43.9-0.7-87.8,0-131.7c0.6-33,22.6-54.7,55.7-55.3c43.6-0.7,87.3-0.7,131,0
	c33.4,0.5,54.6,22.5,56.1,55.9C379.5,201.1,380.5,304.8,377.5,329.2L377.5,329.2z"/>
<path class="st2" d="M257.6,178.3c-42.6,0-77.2,34.5-77.3,77.2c-0.1,42.5,34.5,77.1,77.2,77.1c42.6,0,77.2-34.5,77.2-77.1
	C334.7,212.9,300.2,178.3,257.6,178.3z M257.3,305.1c-27.7,0-49.4-22.2-49.3-50.2c0.1-27.2,22.2-49,49.8-48.9s49.5,22.2,49.3,50.2
	C307,283.4,284.8,305.1,257.3,305.1L257.3,305.1z"/>
<path class="st2" d="M355.7,175.4c0,10-7.9,18.1-17.8,18.5c-9.9,0.2-18.8-8.6-18.7-18.5c0.2-10,8.3-17.9,18.3-18
	C347.5,157.3,355.6,165.4,355.7,175.4z"/>
</svg>
