<?xml version="1.0" encoding="utf-8"?>
<!-- Generator: Adobe Illustrator 24.1.2, SVG Export Plug-In . SVG Version: 6.00 Build 0)  -->
<svg version="1.1" id="Capa_1" xmlns="http://www.w3.org/2000/svg" xmlns:xlink="http://www.w3.org/1999/xlink" x="0px" y="0px"
	 viewBox="0 0 414.9 414.9" style="enable-background:new 0 0 414.9 414.9;" xml:space="preserve">
<style type="text/css">
	.st0{fill:#E53E2B;}
</style>
<g>
	<path class="st0" d="M159.1,256.5c37.2,36.9,80.3,72.2,97.2,55.2c24.2-24.4,39.1-45.6,92.9-2.8c53.7,42.9,12.7,71.7-10.8,95.4
		c-27.1,27.3-128.4,1.9-228.9-97.8C9.1,206.7-17.1,105.5,10,78.3c23.5-23.6,52-64.9,95.3-11.5c43.3,53.4,22.2,68.5-2.1,92.9
		C86.3,176.7,121.9,219.5,159.1,256.5z M213.1,80.2c0,0-11.2-1.8-19.1,6.1c-8.1,8.1-8.4,22,0.1,30.6c5,5,12.1,6.1,12.1,6.1
		c13.9,2.6,34.7,7,56.9,29.2c22.2,22.2,26.6,43.1,29.2,56.9c0,0,1.1,7.1,6.1,12.1c8.5,8.5,22.5,8.2,30.6,0.1
		c7.9-7.9,6.1-19.1,6.1-19.1c-4.4-28.1-18-57.4-41.4-80.7C270.5,98.2,241.2,84.6,213.1,80.2z M318.4,97
		c40.7,40.7,58.1,86.9,52.4,124.4c0,0-2,11.9,5.8,19.6c8.7,8.7,22.5,8.2,30.7,0.1c5.2-5.2,6.4-13.8,6.4-13.8
		c4.7-32.4-1.2-97.5-64.6-160.9C285.6,2.9,220.5-3,188.1,1.7c0,0-8.5,1.1-13.8,6.4c-8.2,8.2-8.7,22,0.1,30.7
		c7.7,7.7,19.6,5.8,19.6,5.8C231.5,38.9,277.7,56.2,318.4,97z"/>
</g>
</svg>
