<?xml version="1.0" encoding="utf-8"?>
<!-- Generator: Adobe Illustrator 24.1.2, SVG Export Plug-In . SVG Version: 6.00 Build 0)  -->
<svg version="1.1" id="Layer_1" xmlns="http://www.w3.org/2000/svg" xmlns:xlink="http://www.w3.org/1999/xlink" x="0px" y="0px"
	 viewBox="0 0 416 79" style="enable-background:new 0 0 416 79;" xml:space="preserve">
<style type="text/css">
	.st0{stroke:#FFFFFF;stroke-miterlimit:10;}
	.st1{display:none;stroke:#FFFFFF;stroke-miterlimit:10;}
</style>
<desc>Created with Sketch.</desc>
<g id="Page-1">
	<g id="_x30_0_x5F_A_x5F_Desktop_x5F_Home" transform="translate(-392.000000, -2570.000000)">
		<g id="Ronal2013_RGB-Copy-2" transform="translate(392.000000, 2570.000000)">
			<path id="Fill-1" class="st0" d="M104.3,8L96,70h16.8l2.2-17c0.4-2.6,0.7-5.4,0.9-8L129.5,70h19.2l-14.5-23.6
				c2.7-1,3.6-1.4,5-2.3c2.2-1.3,3.8-3.2,4.4-3.9c1.8-2.4,4.4-6.7,4.4-13.9c0-11.8-7.7-16.2-12.2-17.4c-3.3-0.9-7.6-1-11-1H104.3z
				 M119.4,20.6h3.6c3,0,5.9,0.3,7.5,3.2c0.4,0.6,0.9,1.8,0.9,3.6c0,1.5-0.4,6.2-5.3,7.7c-1.1,0.4-1.9,0.4-4.2,0.4h-4.4L119.4,20.6z
				 M304,8h-16.9l-2.6,21.3c-0.3,2.3-0.5,4.7-0.7,6.9c-0.3,4.4-0.4,8.7-0.6,13c-1.5-3.2-2.9-6.5-4.7-9.7c-1.3-2.6-2.9-5.1-4.4-7.6
				L259.4,8H241l-8.5,62h16.7l3.7-28c0.4-2.5,0.6-4.8,0.9-7.2c0.2-2.4,0.4-4.7,0.6-7c1.7,3.9,3.3,7.9,5.4,11.7
				c1.3,2.8,2.9,5.4,4.5,8.1L277.7,70h18.1L304,8L304,8z"/>
			<path id="Fill-2" class="st0" d="M329.7,8L299,70h18.6l5-10.8h20.7l3.1,10.8H364L348,8H329.7z M328.5,46.4c1.6-4,3.2-8,4.7-12.1
				c1.3-3.6,2.5-7.2,3.7-10.9l3.4,23H328.5L328.5,46.4z"/>
			<polyline id="Fill-3" class="st0" points="376.2,8 368,70 410.1,70 412,55.1 386.7,55.1 392.9,8 376.2,8 			"/>
			<path id="Fill-5" class="st1" d="M416.5,16c-0.4-0.9-0.6-2.1-0.6-2.3c0-0.1-0.1-0.8-0.5-1.1c-0.1-0.1-0.2-0.1-0.2-0.2
				c0.3-0.2,1.2-0.5,1.2-1.6c0-0.4-0.1-0.8-0.4-1.1c-0.3-0.5-0.8-0.7-1.9-0.7c-0.2,0-0.4,0-0.6,0h-2.5V16h1.7v-3h0.3
				c0.3,0,0.7,0,0.9,0.2c0.2,0.2,0.2,0.4,0.3,0.9c0.1,0.6,0.1,1.2,0.4,1.8L416.5,16z M412.6,11.7v-1.5h1.1c0.5,0,0.8,0.1,0.9,0.3
				c0.1,0.1,0.1,0.3,0.1,0.4c0,0.2-0.1,0.4-0.1,0.4c-0.2,0.4-0.5,0.4-1.2,0.4H412.6z M419,12.5c0-1.2-0.3-2.4-1.1-3.3
				c-1.1-1.4-2.7-2.2-4.4-2.2c-2.3,0-3.7,1.3-4.3,2c-0.5,0.5-1.3,1.7-1.3,3.5c0,2.4,1.4,3.8,2.1,4.4c1,0.7,2.1,1.1,3.4,1.1
				c0.8,0,2.7-0.2,4.2-1.9C418.9,14.7,419,13.2,419,12.5L419,12.5z M418.5,12.5c0,2.1-1.3,4-3.3,4.7c-0.8,0.3-1.4,0.3-1.7,0.3
				c-2,0-3.9-1.2-4.7-3.1c-0.2-0.6-0.4-1.2-0.4-1.9c0-2.3,1.4-3.6,2.1-4c1.2-0.9,2.4-1,3-1c2.3,0,3.5,1.3,4,2
				C418.4,10.7,418.5,12,418.5,12.5L418.5,12.5z"/>
			<path id="Fill-6" class="st0" d="M192.8,0c3.8,0,14.6,0.5,23.8,7.9c4.9,3.9,13.5,12.8,13.5,29.5c0,13.9-6.2,23.3-9.1,26.9
				c-2.4,3.2-9.3,10.4-20.3,13.4c-1.9,0.4-5.8,1.3-11,1.3c-1.9,0-6.3-0.1-11.3-1.4c-9.7-2.4-18.7-8.8-23.4-18.3
				c-0.8-1.7-1.9-4.3-2.8-8.6c-1-4.6-1-8.1-1-9.9c0-9.8,2.7-18.3,8.7-25.8C164.4,9.2,174.5-0.2,192.8,0z M191.3,16.4
				c-4.7-0.1-9.2,1.2-13.2,3.9c-3.4,2.4-9.3,8.6-9.3,20c0,3.8,0.7,6.3,1.2,7.8c3.1,9,11.2,13.9,20.1,13.9c2.5,0,7.2-0.3,12.4-4.1
				c8.7-6.3,9.2-16.7,9.2-20.2c0-5-1.3-9.4-4.2-13.5C203.5,18.8,197.9,16.4,191.3,16.4z"/>
			<path id="Fill-8" class="st0" d="M76.2,20L78,7H56.2c-6,0-10.2,1.4-13,4.4C40.9,13.8,39,16.7,37,20L76.2,20"/>
			<path id="Fill-9" class="st0" d="M76,23l-41.1,0c-1.9,3.2-3.9,6.8-6.3,10.5c-0.6,0.9-1,1.6-1.6,2.5l47.2,0L76,23"/>
			<path id="Fill-10" class="st0" d="M72,53l2-14l-47.9,0c-3.3,5-6.6,9.5-10.1,14H72"/>
			<path id="Fill-12" class="st0" d="M14.1,57C10.8,61.3,7.2,65.8,3,71l67.2,0L72,57L14.1,57"/>
		</g>
	</g>
</g>
</svg>
