<?xml version="1.0" encoding="utf-8"?>
<!-- Generator: Adobe Illustrator 24.1.2, SVG Export Plug-In . SVG Version: 6.00 Build 0)  -->
<svg version="1.1" id="Layer_1" xmlns="http://www.w3.org/2000/svg" xmlns:xlink="http://www.w3.org/1999/xlink" x="0px" y="0px"
	 viewBox="0 0 512 512" style="enable-background:new 0 0 512 512;" xml:space="preserve">
<style type="text/css">
	.st0{fill:#E53E2B;}
	.st1{fill-rule:evenodd;clip-rule:evenodd;fill:#FFFFFF;}
</style>
<rect class="st0" width="512" height="512"/>
<path class="st1" d="M402.4,198.8c-1.3-9.5-4.3-18.9-7.9-27.9c-5-12.7-14.2-20.8-28.7-21.4c-9-0.4-17.9-1.7-26.9-1.7
	c-57.3-0.1-114.7-0.1-172.1,0c-10.8,0.2-21.5,1-32.2,2.3c-9.5,1-17.4,5.8-21.3,14.6c-4.2,9.4-8.7,19.2-10.3,29.2
	c-6.2,37.8-6.5,76.4-1.1,114.4c1.7,11.4,5.4,22.6,9.9,33.2c3.7,9.3,12.2,15.8,22.2,17c8.2,1.1,16.5,1.7,24.8,1.9
	c31.8,0.8,163.9,0.4,163.9,0.4s1.6,0,36.7-1.2c21.6-0.8,31.9-8.9,38.5-29.6c1.2-3.7,2.2-7.4,2.9-11.2
	C408,279,407.8,238.9,402.4,198.8z M222.1,310.1V198.5l86.5,56L222.1,310.1z"/>
</svg>
